<?xml version="1.0" standalone="no"?>
<!DOCTYPE svg PUBLIC "-//W3C//DTD SVG 20010904//EN"
 "http://www.w3.org/TR/2001/REC-SVG-20010904/DTD/svg10.dtd">
<svg version="1.0" xmlns="http://www.w3.org/2000/svg"
 width="700.000000pt" height="700.000000pt" viewBox="0 0 700.000000 700.000000"
 preserveAspectRatio="xMidYMid meet">
<metadata>
Created by potrace 1.14, written by Peter Selinger 2001-2017
</metadata>
<g transform="translate(0.000000,700.000000) scale(0.100000,-0.100000)"
fill="#000000" stroke="none">
<path d="M3278 6996 c-1 -2 -39 -6 -83 -10 -396 -30 -841 -153 -1210 -332
-180 -87 -448 -247 -555 -331 -8 -6 -51 -40 -95 -74 -353 -275 -673 -651 -897
-1054 -48 -86 -148 -289 -148 -301 0 -2 -11 -27 -24 -56 -51 -113 -131 -355
-162 -488 -40 -174 -66 -313 -79 -430 -27 -231 -27 -670 0 -831 2 -13 6 -46 9
-74 9 -78 22 -152 51 -285 69 -324 255 -784 418 -1038 26 -40 47 -75 47 -78 0
-2 4 -10 10 -17 5 -7 46 -64 91 -126 72 -103 179 -239 234 -297 333 -357 629
-586 1015 -786 335 -174 742 -303 1109 -354 25 -3 57 -8 71 -10 163 -25 682
-25 842 1 13 2 46 7 73 10 72 10 86 12 120 19 17 3 44 8 60 11 342 65 741 212
1039 384 49 28 93 51 97 51 5 0 9 5 9 10 0 6 5 10 10 10 15 0 220 141 330 227
151 117 324 281 450 422 36 41 70 79 76 85 6 6 48 61 94 121 151 199 283 416
388 638 23 49 42 91 42 93 0 2 11 27 24 56 57 127 151 421 182 573 17 81 54
301 59 350 4 33 9 71 11 85 9 46 11 524 4 605 -15 153 -21 210 -25 225 -2 8
-7 35 -10 60 -17 129 -80 384 -136 552 -349 1038 -1173 1862 -2209 2207 -174
58 -415 118 -550 136 -19 3 -46 7 -60 10 -13 2 -52 7 -86 11 -33 3 -74 8 -90
10 -32 5 -540 14 -546 10z m437 -880 c79 -8 209 -24 246 -31 13 -3 47 -9 74
-15 28 -6 59 -12 70 -14 76 -15 284 -82 398 -130 420 -174 817 -478 1077 -825
14 -18 34 -45 46 -59 56 -73 156 -239 221 -367 115 -227 218 -547 247 -775 3
-25 8 -54 10 -65 10 -50 19 -222 19 -345 0 -192 -12 -313 -49 -500 -31 -153
-25 -131 -68 -272 -97 -319 -291 -669 -511 -923 -233 -270 -497 -477 -810
-635 -208 -106 -483 -202 -665 -234 -19 -3 -46 -8 -59 -11 -38 -7 -170 -24
-241 -31 -136 -13 -423 -7 -545 11 -16 3 -48 7 -70 10 -32 5 -178 33 -255 50
-41 9 -256 78 -265 84 -5 5 -28 14 -50 21 -57 18 -273 122 -348 166 -454 273
-801 641 -1029 1089 -122 240 -224 559 -253 790 -3 28 -8 57 -10 65 -22 88
-23 493 -1 660 8 58 28 166 42 228 8 37 17 78 20 92 11 56 69 231 109 330 178
442 478 833 859 1118 99 75 296 202 311 202 3 0 22 10 43 23 47 29 230 110
333 148 67 25 261 80 332 95 66 14 118 23 166 29 30 4 63 8 74 11 11 2 61 6
111 10 50 3 92 7 93 8 5 5 262 -1 328 -8z"/>
<path d="M3357 5684 c-1 -1 -38 -5 -82 -9 -44 -4 -114 -14 -155 -22 -41 -8
-86 -17 -100 -19 -14 -3 -50 -12 -80 -20 -30 -8 -59 -16 -65 -18 -24 -6 -122
-38 -140 -46 -11 -5 -54 -23 -95 -40 -435 -180 -836 -545 -1060 -965 -24 -44
-46 -84 -50 -90 -19 -27 -103 -254 -134 -361 -61 -217 -84 -396 -81 -629 5
-336 70 -610 216 -913 215 -447 559 -793 1004 -1012 192 -94 435 -175 589
-195 27 -3 52 -8 55 -9 29 -17 394 -26 532 -13 743 69 1411 530 1744 1202 87
177 160 380 179 499 4 21 8 42 11 46 2 4 7 32 11 61 3 30 8 56 10 59 7 14 18
187 18 300 0 366 -66 652 -224 975 -280 571 -794 991 -1409 1151 -52 13 -108
27 -125 29 -17 3 -56 10 -86 15 -105 17 -176 23 -328 24 -84 1 -153 1 -155 0z
m406 -898 c261 -58 475 -173 657 -356 104 -104 108 -109 169 -199 91 -134 161
-301 198 -474 28 -127 25 -421 -5 -542 -66 -265 -173 -456 -357 -640 -254
-254 -569 -386 -925 -386 -354 1 -675 134 -925 386 -256 257 -386 570 -385
925 0 132 3 157 36 318 22 111 111 306 197 431 66 98 230 262 328 328 163 111
376 197 538 218 25 3 47 7 49 10 12 12 353 -3 425 -19z"/>
<path d="M3440 4373 c-237 -26 -422 -113 -572 -270 -325 -343 -323 -868 6
-1211 192 -201 484 -299 758 -256 545 86 875 641 690 1159 -117 331 -432 564
-782 578 -41 1 -86 1 -100 0z"/>
</g>
</svg>
