<svg xmlns:rdf="http://www.w3.org/1999/02/22-rdf-syntax-ns#" xmlns:dc="http://purl.org/dc/elements/1.1/"
     xmlns="http://www.w3.org/2000/svg" width="107" height="120" viewBox="0 0 107 120">
  <metadata>
    <rdf:RDF>
      <rdf:Description rdf:about="https://product.design.dev.aws.mskcc.org/">
        <dc:creator>MSK</dc:creator>
        <dc:description>v1.7.0</dc:description>
        <dc:date>December 2, 2022</dc:date>
      </rdf:Description>
    </rdf:RDF>
  </metadata>
  <path fill="#fff"
        d="M93.285 15.534C84.255 5.226 70.8 0 53.3 0 35.797 0 22.344 5.226 13.312 15.534 4.479 25.615 0 40.576 0 60s4.479 34.385 13.312 44.466C22.344 114.774 35.797 120 53.299 120c17.501 0 30.955-5.226 39.986-15.534 8.834-10.08 13.313-25.042 13.313-44.466s-4.479-34.385-13.313-44.466zM53.3 113.084C22.39 113.084 6.936 95.39 6.936 60S22.39 6.916 53.3 6.916C84.207 6.916 99.662 24.61 99.662 60s-15.455 53.084-46.363 53.084zm0-93.898L74.452 40.34l-4.892 4.89-12.802-12.803V54.24H71.94v6.917H56.758v5.353H71.94v6.917H56.758v5.353H71.94v6.918H56.758v15.116H49.84V85.698H34.658V78.78H49.84v-5.353H34.658V66.51H49.84v-5.353H34.658V54.24H49.84V32.428L37.038 45.23l-4.892-4.891Z"/>
</svg>
