<?xml version="1.0" encoding="utf-8"?>
<!-- Generated by IcoMoon.io -->
<!DOCTYPE svg PUBLIC "-//W3C//DTD SVG 1.1//EN" "http://www.w3.org/Graphics/SVG/1.1/DTD/svg11.dtd">
<svg version="1.1" xmlns="http://www.w3.org/2000/svg" xmlns:xlink="http://www.w3.org/1999/xlink" width="7697" height="1600" viewBox="0 0 7697 1600">
<g id="icomoon-ignore">
</g>
<path fill="#FFFFFF" d="M1745.145 680.578c48.702-9.269 57.975-20.862 57.975-74.203v-217.975c0-20.863-9.269-30.141-57.975-32.458v-23.189h132.17l102.025 280.578h4.642l102.025-280.578h132.17v23.189c-46.378 2.327-57.975 6.955-57.975 23.189v271.298c0 16.233 11.597 23.189 57.975 23.189v23.189h-164.641v-23.189c44.052-2.327 48.702-4.642 48.702-23.189v-271.298h-4.642l-120.578 322.327h-23.189l-120.578-322.327h-4.642v227.239c0 51.014 4.642 64.92 53.328 74.203v20.863h-141.455v-20.863zM2287.764 571.597c0 57.975 27.828 104.353 83.483 104.353 32.458 0 57.975-18.545 78.836-46.378l13.92 13.92c-20.863 34.786-53.328 64.92-108.984 64.92-78.836 0-120.578-55.647-120.578-129.858 0-76.516 48.702-134.484 120.578-134.484 78.836 0 108.984 64.92 104.353 127.542h-171.592zM2406.016 546.080c2.327-46.378-16.233-83.483-55.647-83.483-34.786 0-57.975 23.189-62.609 85.797l118.266-2.327zM2828.048 441.734c39.422 0 62.609 27.828 62.609 78.836v139.137c0 13.92 9.269 18.545 41.734 18.545v23.189h-122.891v-23.189c27.828 0 32.458-6.955 32.458-18.545v-118.266c0-46.378-16.233-60.297-48.702-60.297-18.545 0-39.422 9.269-60.297 25.516 0 4.642 0 11.597 0 16.233v134.484c0 13.92 4.642 18.545 37.109 18.545v23.189h-120.578v-23.189c27.828 0 32.458-6.955 32.458-18.545v-118.266c0-46.378-18.545-60.297-51.014-60.297-25.516 0-41.734 11.597-57.975 20.862v157.673c0 13.92 4.642 18.545 32.458 18.545v23.189h-122.891v-23.189c32.458 0 41.734-6.955 41.734-18.545v-162.327c0-16.233-9.269-27.828-41.734-27.828v-23.189l90.433-2.327v39.422c30.141-20.862 57.975-39.422 95.078-39.422 27.828 0 51.014 16.233 60.297 46.378 32.458-27.828 64.92-46.378 99.702-46.378zM2941.673 576.233c0-78.836 51.014-134.484 127.542-134.484 78.836 0 127.542 53.328 127.542 132.17s-51.014 134.484-127.542 134.484c-81.164 0-127.542-55.647-127.542-132.17zM3138.766 573.92c0-74.203-27.828-108.984-74.203-108.984-44.052 0-67.241 32.458-67.241 108.984 0 74.203 27.828 108.984 74.203 108.984 41.734 0 67.241-34.786 67.241-108.984zM3212.98 678.266c32.458 0 41.734-6.955 41.734-18.545v-162.327c0-16.233-9.269-27.828-41.734-27.828v-23.189l90.433-2.327v44.052c18.545-25.516 44.052-46.378 71.891-46.378s41.734 18.545 41.734 41.734c0 18.545-13.92 32.458-30.141 32.458s-32.458-9.269-32.458-30.141c0-2.327 0-6.955 0-9.269-25.516 0-41.734 16.233-53.328 30.141v150.731c0 13.92 9.269 18.545 46.378 18.545v23.189h-139.138v-20.862zM3437.897 678.266c32.458 0 41.734-6.955 41.734-18.545v-162.327c0-16.233-6.955-27.828-39.422-27.828v-23.189l90.433-2.327v215.645c0 13.92 6.955 18.545 41.734 18.545v23.189h-132.17v-23.189zM3470.359 348.981c0-20.863 13.92-34.786 32.458-34.786 20.862 0 32.458 13.92 32.458 34.786s-13.92 34.786-32.458 34.786c-18.545-2.327-32.458-13.92-32.458-34.786zM3593.264 645.797c0-23.189 11.597-46.378 34.786-57.975 41.734-23.189 108.984-32.458 118.266-39.422v-16.233c0-48.702-13.92-67.241-51.014-67.241-18.545 0-27.828 4.642-37.109 11.597 4.642 9.269 6.955 18.545 6.955 25.516 0 16.233-11.597 30.141-30.141 30.141s-30.141-13.92-30.141-30.141c0-37.109 46.378-62.609 99.702-62.609 57.975 0 92.756 25.516 92.756 78.836v122.891c0 27.828 4.642 34.786 41.734 30.141l2.327 18.545c-20.862 6.955-32.458 11.597-48.702 11.597-30.141 0-37.109-11.597-41.734-44.052h-4.642c-23.189 25.516-48.702 44.052-81.164 44.052-48.702 2.327-71.891-23.189-71.891-55.647zM3746.3 636.517v-67.241c-78.836 18.545-95.078 30.141-95.078 62.609 0 20.862 11.597 37.109 39.422 37.109 20.862 2.327 41.734-13.92 55.647-32.458zM3855.298 678.266c32.458 0 41.734-6.955 41.734-18.545v-294.484c0-16.233-11.597-27.828-44.052-27.828v-23.189l92.756-2.327v347.83c0 13.92 9.269 18.545 41.734 18.545v23.189h-132.17v-23.189zM4112.677 592.458h20.862c30.141 64.92 67.241 90.433 113.622 90.433 51.014 0 71.891-32.458 71.891-62.609 0-39.422-25.516-55.647-95.078-78.836-51.014-18.545-106.672-34.786-106.672-104.353s55.647-111.297 125.214-111.297c32.458 0 51.014 6.955 69.567 13.92l18.545-16.233h16.233v108.984h-20.862c-18.545-51.014-48.702-76.516-92.756-76.516-34.786 0-64.92 23.189-64.92 60.297s27.828 51.014 88.109 71.891c51.014 16.233 106.672 34.786 106.672 104.353 0 55.647-34.786 120.578-127.542 120.578-30.141 0-57.975-6.955-81.164-16.233l-30.141 18.545h-16.233v-122.891zM4383.984 678.266c32.458 0 41.734-6.955 41.734-18.545v-294.484c0-16.233-11.597-27.828-44.052-27.828v-23.189l92.756-2.327v347.83c0 13.92 9.269 18.545 41.734 18.545v23.189h-132.17v-23.189zM4527.762 576.233c0-78.836 51.014-134.484 127.542-134.484 78.836 0 127.542 53.328 127.542 132.17s-51.014 134.484-127.542 134.484c-81.164 0-127.542-55.647-127.542-132.17zM4724.858 573.92c0-74.203-27.828-108.984-74.203-108.984-44.052 0-67.241 32.458-67.241 108.984 0 74.203 27.828 108.984 74.203 108.984 44.052 0 67.241-34.786 67.241-108.984zM4808.327 645.797c0-23.189 11.597-46.378 34.786-57.975 41.734-23.189 108.984-32.458 118.266-39.422v-16.233c0-48.702-13.92-67.241-51.014-67.241-18.545 0-27.828 4.642-37.109 11.597 4.642 9.269 6.955 18.545 6.955 25.516 0 16.233-11.597 30.141-30.141 30.141s-30.141-13.92-30.141-30.141c0-37.109 46.378-62.609 99.702-62.609 57.975 0 92.756 25.516 92.756 78.836v122.891c0 27.828 4.642 34.786 41.734 30.141l2.327 18.545c-20.863 6.955-32.458 11.597-48.702 11.597-30.141 0-37.109-11.597-41.734-44.052h-4.642c-23.189 25.516-48.702 44.052-81.164 44.052-48.702 2.327-71.891-23.189-71.891-55.647zM4961.38 636.517v-67.241c-78.836 18.545-95.078 30.141-95.078 62.609 0 20.862 11.597 37.109 39.422 37.109 23.189 2.327 41.734-13.92 55.647-32.458zM5072.672 678.266c32.458 0 41.734-6.955 41.734-18.545v-162.327c0-16.233-9.269-27.828-41.734-27.828v-23.189l90.433-2.327v39.422c30.141-20.863 62.609-39.422 99.702-39.422 39.422 0 64.92 27.828 64.92 78.836v139.138c0 13.92 6.955 18.545 41.734 18.545v23.189h-127.542v-23.189c27.828 0 34.786-6.955 34.786-18.545v-118.266c0-46.378-16.233-60.297-48.702-60.297-25.516 0-46.378 11.597-62.609 20.862v157.673c0 13.92 6.955 18.545 34.786 18.545v23.189h-127.542v-25.516zM5587.452 652.761c0 18.545 2.327 23.189 46.378 23.189v23.189h-162.327v-23.189c46.378-2.327 57.975-6.955 57.975-23.189v-271.298c0-16.233-11.597-23.189-57.975-23.189v-23.189h169.266v23.189c-48.702 2.327-53.328 4.642-53.328 23.189v143.767l120.578-120.578c27.828-27.828 25.516-44.052-16.233-48.702v-20.863h143.767v20.863c-41.734 6.955-57.975 16.233-97.389 55.647l-74.203 71.891 108.984 148.403c20.863 27.828 30.141 41.734 76.516 48.702v23.189h-162.327v-23.189c39.422-4.642 48.702-13.92 30.141-39.422l-85.797-120.578-39.422 37.109v95.078zM5912.106 571.597c0 57.975 27.828 104.353 83.483 104.353 32.458 0 57.975-18.545 78.836-46.378l13.92 13.92c-20.863 34.786-53.328 64.92-108.984 64.92-78.836 0-120.578-55.647-120.578-129.858 0-76.516 48.702-134.484 120.578-134.484 78.836 0 108.984 64.92 104.353 127.542h-171.592zM6030.358 546.080c2.327-46.378-13.92-83.483-55.647-83.483-34.786 0-57.975 23.189-62.609 85.797l118.266-2.327zM6141.667 636.517v-164.641h-46.378v-18.545l46.378-9.269v-71.891l48.702-20.863v92.756h78.836v27.828h-78.836v157.673c0 30.141 9.269 44.052 32.458 44.052 16.233 0 27.828-11.597 39.422-30.141l16.233 11.597c-20.862 37.109-39.422 51.014-74.203 51.014-39.422 2.327-62.609-25.516-62.609-69.567zM6338.762 636.517v-164.641h-46.378v-18.545l46.378-9.269v-71.891l48.702-20.863v92.756h78.836v27.828h-78.836v157.673c0 30.141 9.269 44.052 32.458 44.052 16.233 0 27.828-11.597 39.422-30.141l16.233 11.597c-20.863 37.109-39.422 51.014-74.203 51.014-41.734 2.327-62.609-25.516-62.609-69.567zM6545.137 571.597c0 57.975 27.828 104.353 83.483 104.353 32.458 0 57.975-18.545 78.836-46.378l13.92 13.92c-20.863 34.786-53.328 64.92-108.984 64.92-78.836 0-120.578-55.647-120.578-129.858 0-76.516 48.702-134.484 120.578-134.484 78.836 0 108.984 64.92 104.353 127.542h-171.592zM6663.394 546.080c2.327-46.378-16.233-83.483-55.647-83.483-34.786 0-57.975 23.189-62.609 85.797l118.266-2.327zM6739.919 678.266c32.458 0 41.734-6.955 41.734-18.545v-162.327c0-16.233-9.269-27.828-41.734-27.828v-23.189l90.433-2.327v44.052c18.545-25.516 44.052-46.378 71.891-46.378s41.734 18.545 41.734 41.734c0 18.545-13.92 32.458-30.141 32.458s-32.458-9.269-32.458-30.141c0-2.327 0-6.955 0-9.269-25.516 0-41.734 16.233-53.328 30.141v150.731c0 13.92 9.269 18.545 46.378 18.545v23.189h-139.137v-20.862zM6964.853 678.266c32.458 0 41.734-6.955 41.734-18.545v-162.327c0-16.233-6.955-27.828-39.422-27.828v-23.189l90.433-2.327v215.645c0 13.92 6.955 18.545 41.734 18.545v23.189h-132.17v-23.189zM6994.988 348.981c0-20.863 13.92-34.786 32.458-34.786 20.862 0 32.458 13.92 32.458 34.786s-13.92 34.786-32.458 34.786c-18.545-2.327-32.458-13.92-32.458-34.786zM7120.203 678.266c32.458 0 41.734-6.955 41.734-18.545v-162.327c0-16.233-9.269-27.828-41.734-27.828v-23.189l90.433-2.327v39.422c30.141-20.863 62.609-39.422 99.702-39.422 39.422 0 64.92 27.828 64.92 78.836v139.138c0 13.92 6.955 18.545 41.734 18.545v23.189h-127.542v-23.189c27.828 0 34.786-6.955 34.786-18.545v-118.266c0-46.378-16.233-60.297-48.702-60.297-25.516 0-46.378 11.597-62.609 20.862v157.673c0 13.92 6.955 18.545 34.786 18.545v23.189h-127.542v-25.516zM7648.906 406.953c18.545 0 30.141 11.597 30.141 27.828 0 13.92-9.269 25.516-20.862 25.516-13.92 0-25.516-9.269-25.516-25.516-11.597 4.642-25.516 13.92-32.458 25.516 23.189 13.92 39.422 37.109 39.422 69.567 0 53.328-44.052 88.109-99.702 88.109-11.597 0-23.189 0-32.458-4.642-13.92 6.955-23.189 16.233-23.189 25.516 0 11.597 6.955 23.189 53.328 23.189h25.516c74.203 0 106.672 18.545 106.672 64.92 0 44.052-46.378 92.756-134.484 92.756-74.203 0-111.297-27.828-111.297-60.297 0-25.516 25.516-48.702 67.241-55.647v-9.269c-32.458-6.955-44.052-20.862-44.052-44.052 0-16.233 13.92-32.458 39.422-46.378-27.828-13.92-46.378-37.109-46.378-74.203 0-53.328 44.052-88.109 102.025-88.109 16.233 0 32.458 2.327 44.052 6.955 9.269-23.189 32.458-41.734 62.609-41.734zM7628.034 743.189c0-23.189-13.92-37.109-69.567-37.109h-46.378c-30.141 4.642-48.702 20.863-48.702 44.052 0 25.516 27.828 44.052 83.483 44.052 48.702-2.327 81.164-25.516 81.164-51.014zM7588.613 529.858c0-41.734-20.863-67.241-51.014-67.241-27.828 0-46.378 16.233-46.378 67.241s23.189 64.92 51.014 64.92c25.516 0 46.378-18.545 46.378-64.92zM1747.473 1102.611c0-113.622 83.483-197.109 190.142-197.109 39.422 0 67.241 13.92 88.109 25.516l16.233-23.189h20.863v127.542h-18.545c-25.516-62.609-57.975-99.702-113.622-99.702-64.92 0-120.578 57.975-120.578 166.953 0 102.025 64.92 155.359 129.858 155.359 62.609 0 92.756-34.786 115.948-81.164l23.189 11.597c-23.189 53.328-71.891 106.672-153.047 106.672-104.353-2.327-178.545-78.836-178.545-192.456zM2106.892 1227.828c0-23.189 11.597-46.378 34.786-57.975 41.734-23.189 108.984-32.458 118.266-39.422v-16.233c0-48.702-13.92-67.241-51.014-67.241-18.545 0-27.828 4.642-37.109 11.597 4.642 9.269 6.955 18.545 6.955 25.516 0 16.233-11.597 30.141-30.141 30.141s-30.141-13.92-30.141-30.141c0-37.109 46.378-62.609 99.702-62.609 57.975 0 92.756 25.516 92.756 78.836v122.891c0 27.828 4.642 34.786 41.734 30.141l2.327 18.545c-20.862 6.955-32.458 11.597-48.702 11.597-30.141 0-37.109-11.597-41.734-44.052h-4.642c-23.189 25.516-48.702 44.052-81.164 44.052-48.702 2.327-71.891-23.189-71.891-55.647zM2257.613 1218.547v-67.241c-78.836 18.545-95.078 30.141-95.078 62.609 0 20.862 11.597 37.109 39.422 37.109 23.189 2.327 44.052-16.233 55.647-32.458zM2371.234 1260.297c32.458 0 41.734-6.955 41.734-18.545v-162.327c0-16.233-9.269-27.828-41.734-27.828v-23.189l90.433-2.327v39.422c30.141-20.862 62.609-39.422 99.702-39.422 39.422 0 64.92 27.828 64.92 78.836v139.137c0 13.92 6.955 18.545 39.422 18.545v23.189h-127.542v-23.189c27.828 0 34.786-6.955 34.786-18.545v-118.266c0-46.378-16.233-60.297-48.702-60.297-25.516 0-46.378 11.597-62.609 20.862v157.673c0 13.92 6.955 18.545 34.786 18.545v23.189h-127.542v-25.516zM2675.011 1158.266c0-78.836 55.647-134.484 125.214-134.484 57.975 0 92.756 32.458 92.756 62.609 0 20.862-13.92 37.109-32.458 37.109s-32.458-11.597-32.458-27.828c0-16.233 9.269-25.516 18.545-30.141-6.955-9.269-25.516-18.545-46.378-18.545-41.734 0-71.891 27.828-71.891 99.702 0 67.241 30.141 108.984 83.483 108.984 30.141 0 55.647-16.233 74.203-39.422l13.92 13.92c-23.189 34.786-53.328 57.975-106.672 57.975-71.891 0-118.266-55.647-118.266-129.858zM2971.82 1153.617c0 57.975 27.828 104.353 83.483 104.353 30.141 0 57.975-18.545 78.836-46.378l13.92 13.92c-20.863 34.786-53.328 64.92-108.984 64.92-78.836 0-120.578-55.647-120.578-129.858 0-76.516 48.702-134.484 120.578-134.484 78.836 0 108.984 64.92 104.353 127.542h-171.592zM3090.078 1128.109c2.327-46.378-16.233-83.483-55.647-83.483-34.786 0-57.975 23.189-62.609 85.797l118.266-2.327zM3166.602 1260.297c32.458 0 41.734-6.955 41.734-18.545v-162.327c0-16.233-9.269-27.828-41.734-27.828v-23.189l90.433-2.327v44.052c18.545-25.516 44.052-46.378 71.891-46.378s41.734 18.545 41.734 41.734c0 18.545-13.92 32.458-30.141 32.458s-32.458-9.269-32.458-30.141c0-2.327 0-6.955 0-9.269-25.516 0-41.734 16.233-53.328 30.141v150.731c0 13.92 9.269 18.545 46.378 18.545v23.189h-139.137v-20.862zM3479.639 1102.611c0-113.622 83.483-197.109 190.142-197.109 39.422 0 67.241 13.92 88.109 25.516l16.233-23.189h20.862v127.542h-18.545c-25.516-62.609-57.975-99.702-113.622-99.702-64.92 0-120.578 57.975-120.578 166.953 0 102.025 64.92 155.359 129.858 155.359 62.609 0 92.756-34.786 115.948-81.164l23.189 11.597c-23.189 53.328-71.891 106.672-153.047 106.672-104.353-2.327-178.545-78.836-178.545-192.456zM3897.031 1153.617c0 57.975 27.828 104.353 83.483 104.353 30.141 0 57.975-18.545 78.836-46.378l13.92 13.92c-20.862 34.786-53.328 64.92-108.984 64.92-78.836 0-120.578-55.647-120.578-129.858 0-76.516 48.702-134.484 120.578-134.484 78.836 0 108.984 64.92 104.353 127.542h-171.592zM4012.98 1128.109c2.327-46.378-16.233-83.483-55.647-83.483-34.786 0-57.975 23.189-62.609 85.797l118.266-2.327zM4089.487 1260.297c32.458 0 41.734-6.955 41.734-18.545v-162.327c0-16.233-9.269-27.828-41.734-27.828v-23.189l90.433-2.327v39.422c30.141-20.862 62.609-39.422 99.702-39.422 39.422 0 64.92 27.828 64.92 78.836v139.137c0 13.92 6.955 18.545 41.734 18.545v23.189h-127.542v-23.189c27.828 0 34.786-6.955 34.786-18.545v-118.266c0-46.378-16.233-60.297-51.014-60.297-25.516 0-46.378 11.597-62.609 20.862v157.673c0 13.92 6.955 18.545 34.786 18.545v23.189h-127.542v-25.516zM4425.734 1218.547v-164.641h-46.378v-18.545l46.378-9.269v-71.891l48.702-20.862v92.756h78.836v27.828h-78.836v157.673c0 30.141 9.269 44.052 32.458 44.052 16.233 0 27.828-11.597 39.422-30.141l16.233 11.597c-20.862 37.109-39.422 51.014-74.203 51.014-41.734 0-62.609-25.516-62.609-69.567zM4632.108 1153.617c0 57.975 27.828 104.353 83.483 104.353 32.458 0 57.975-18.545 78.836-46.378l13.92 13.92c-20.863 34.786-53.328 64.92-108.984 64.92-78.836 0-120.578-55.647-120.578-129.858 0-76.516 48.702-134.484 120.578-134.484 78.836 0 108.984 64.92 104.353 127.542h-171.592zM4750.359 1128.109c2.327-46.378-13.92-83.483-55.647-83.483-34.786 0-57.975 23.189-62.609 85.797l118.266-2.327zM4826.889 1260.297c32.458 0 41.734-6.955 41.734-18.545v-162.327c0-16.233-9.269-27.828-41.734-27.828v-23.189l90.433-2.327v44.052c18.545-25.516 44.052-46.378 71.891-46.378s41.734 18.545 41.734 41.734c0 18.545-13.92 32.458-30.141 32.458s-32.458-9.269-32.458-30.141c0-2.327 0-6.955 0-9.269-25.516 0-41.734 16.233-53.328 30.141v150.731c0 13.92 9.269 18.545 46.378 18.545v23.189h-139.137v-20.862zM428.056 1234.78l13.92 2.327-23.189 180.861-20.863-2.327 20.863-160-34.786 6.955-2.327-16.233 46.378-11.597zM564.867 1431.891c-37.109-2.327-67.241-25.516-64.92-55.647 0-20.862 16.233-37.109 39.422-41.734-16.233-9.269-30.141-23.189-27.828-44.052 0-27.828 30.141-46.378 64.92-44.052 32.458 2.327 60.297 23.189 57.975 51.014 0 20.862-16.233 32.458-32.458 39.422 20.862 9.269 34.786 25.516 34.786 46.378-4.642 32.458-34.786 51.014-71.891 48.702zM569.508 1346.078c-25.516-2.327-48.702 11.597-48.702 32.458 0 18.545 16.233 34.786 46.378 37.109s48.702-13.92 48.702-32.458c0-20.862-20.862-34.786-46.378-37.109zM571.83 1264.922c-23.189-2.327-41.734 11.597-41.734 30.141-2.327 20.862 16.233 34.786 39.422 34.786s41.734-11.597 44.052-32.458c0-16.233-16.233-32.458-41.734-32.458zM768.927 1434.203c-39.422 2.327-69.567-18.545-69.567-48.702 0-20.862 13.92-37.109 34.786-46.378-16.233-6.955-32.458-18.545-32.458-39.422 0-27.828 27.828-48.702 60.297-51.014 32.458 0 62.609 18.545 62.609 46.378 0 20.862-13.92 34.786-30.141 41.734 20.863 6.955 37.109 20.862 39.422 41.734 0 32.458-27.828 53.328-64.92 55.647zM764.291 1348.402c-25.516 0-46.378 16.233-46.378 37.109 0 18.545 18.545 32.458 48.702 32.458 30.141-2.327 46.378-16.233 46.378-34.786 0-23.189-20.862-37.109-48.702-34.786zM761.961 1264.922c-23.189 0-41.734 13.92-39.422 32.458 0 20.862 18.545 32.458 41.734 32.458s41.734-13.92 39.422-34.786c0-16.233-18.545-30.141-41.734-30.141zM977.616 1230.141l16.233 120.578 27.828-4.642 2.327 16.233-27.828 4.642 4.642 41.734-18.545 4.642-4.642-41.734-95.078 11.597-6.955-13.92 85.797-136.811 16.233-2.327zM961.392 1260.297l-62.609 102.025 74.203-9.269-11.597-92.756zM741.102 351.297v0l173.92 173.92 55.647-55.647-268.986-268.986-268.986 268.986 55.647 55.647 173.92-173.92v280.578h-192.456v78.836h192.456v67.241h-192.456v78.836h192.456v69.567h-192.456v78.836h192.456v201.734h78.836v-201.734h192.456v-78.836h-192.456v-69.567h190.142v-78.836h-190.142v-67.241h192.456v-78.836h-192.456v-280.578zM1381.095 518.266c-57.975-255.080-208.705-422.023-438.266-489.266-69.567-18.545-148.403-30.141-234.203-30.141h-6.955c-90.433 0-173.92 11.597-245.797 32.458-222.611 67.241-371.019 231.891-428.984 486.953-20.863 83.483-32.458 173.92-32.458 275.945s9.269 194.781 27.828 278.266c60.297 266.672 217.975 438.266 461.453 500.862 64.92 16.233 136.811 25.516 213.328 25.516h6.955c76.516 0 148.403-9.269 213.328-23.189 243.483-60.297 401.159-231.891 463.766-500.862 18.545-81.164 27.828-171.592 27.828-268.986 2.327-106.672-6.955-201.734-27.828-287.542zM1292.987 1074.781c-46.378 187.83-155.359 357.109-382.609 419.706-60.297 16.233-129.858 25.516-211.014 25.516h-6.955c-78.836 0-150.731-11.597-211.014-27.828-224.923-64.92-333.92-231.891-380.297-419.706-23.189-90.433-30.141-187.83-30.141-278.266 0-85.797 9.269-176.236 30.141-262.023 44.052-183.189 143.767-347.83 352.455-417.391 67.241-23.189 148.403-37.109 241.164-37.109h6.955c90.433 0 166.953 13.92 231.891 34.786 213.328 69.567 315.359 234.203 359.422 417.391 20.862 90.433 30.141 185.516 27.828 273.617 2.327 88.109-6.955 180.861-27.828 271.298z"></path>
</svg>
