<?xml version="1.0" encoding="utf-8"?>
<!-- Generator: Adobe Illustrator 16.0.4, SVG Export Plug-In . SVG Version: 6.00 Build 0)  -->
<!DOCTYPE svg PUBLIC "-//W3C//DTD SVG 1.1//EN" "http://www.w3.org/Graphics/SVG/1.1/DTD/svg11.dtd">
<svg version="1.1" id="Layer_1" xmlns="http://www.w3.org/2000/svg" xmlns:xlink="http://www.w3.org/1999/xlink" x="0px" y="0px"
	 width="1440px" height="1660px" viewBox="-20 -20 1440 1660" enable-background="new 0 0 1440 1660" xml:space="preserve">
<g id="icomoon-ignore">
</g>
<path d="M428.056,1234.78l13.921,2.327l-23.189,180.86l-20.863-2.327l20.863-160l-34.786,6.955l-2.327-16.232l46.378-11.598
	L428.056,1234.78z M564.867,1431.891c-37.109-2.326-67.241-25.516-64.92-55.646c0-20.862,16.232-37.109,39.422-41.734
	c-16.233-9.269-30.141-23.188-27.828-44.052c0-27.828,30.141-46.378,64.92-44.052c32.458,2.327,60.297,23.188,57.975,51.014
	c0,20.862-16.232,32.458-32.457,39.422c20.861,9.27,34.785,25.517,34.785,46.378c-4.642,32.458-34.785,51.015-71.891,48.702
	L564.867,1431.891z M569.508,1346.078c-25.516-2.327-48.702,11.597-48.702,32.458c0,18.545,16.233,34.786,46.378,37.108
	c30.146,2.323,48.702-13.92,48.702-32.457C615.886,1362.325,595.023,1348.401,569.508,1346.078z M571.83,1264.922
	c-23.189-2.327-41.734,11.598-41.734,30.141c-2.326,20.862,16.233,34.786,39.422,34.786c23.189,0,41.734-11.597,44.053-32.458
	c0-16.232-16.233-32.458-41.734-32.458L571.83,1264.922z M768.927,1434.203c-39.422,2.327-69.566-18.545-69.566-48.702
	c0-20.862,13.92-37.109,34.786-46.378c-16.233-6.955-32.459-18.545-32.459-39.422c0-27.828,27.828-48.702,60.298-51.015
	c32.458,0,62.608,18.546,62.608,46.378c0,20.862-13.92,34.786-30.141,41.734c20.863,6.955,37.109,20.862,39.422,41.734
	c0,32.458-27.828,53.328-64.92,55.646L768.927,1434.203z M764.291,1348.402c-25.516,0-46.378,16.232-46.378,37.108
	c0,18.545,18.545,32.458,48.702,32.458c30.141-2.327,46.378-16.232,46.378-34.786c0-23.188-20.862-37.108-48.702-34.786V1348.402z
	 M761.961,1264.922c-23.189,0-41.734,13.92-39.422,32.458c0,20.862,18.545,32.458,41.734,32.458
	c23.188,0,41.733-13.92,39.422-34.786c0-16.232-18.545-30.141-41.734-30.141V1264.922z M977.616,1230.141l16.232,120.578
	l27.828-4.642l2.327,16.233l-27.828,4.642l4.643,41.733l-18.545,4.643l-4.643-41.734l-95.078,11.598l-6.955-13.92l85.797-136.812
	l16.233-2.327L977.616,1230.141z M961.393,1260.297l-62.609,102.025l74.203-9.27l-11.598-92.756H961.393z M741.102,351.297
	L741.102,351.297l173.92,173.92l55.647-55.646L701.683,200.584L432.697,469.57l55.646,55.646l173.92-173.92v280.578H469.808v78.836
	h192.456v67.241H469.808v78.836h192.456v69.567H469.808v78.836h192.456v201.733H741.1v-201.733h192.456v-78.836H741.1v-69.567
	h190.143v-78.836H741.1v-67.241h192.456v-78.836H741.1V351.297H741.102z M1381.095,518.266
	C1323.12,263.186,1172.39,96.243,942.829,29C873.262,10.455,794.426-1.141,708.626-1.141h-6.955
	c-90.433,0-173.92,11.597-245.797,32.458C233.263,98.558,84.855,263.208,26.89,518.27C6.027,601.753-5.568,692.19-5.568,794.215
	c0,102.025,9.269,194.781,27.828,278.266c60.297,266.673,217.975,438.267,461.453,500.862
	c64.92,16.233,136.811,25.517,213.328,25.517h6.955c76.516,0,148.402-9.27,213.328-23.189
	c243.482-60.297,401.158-231.891,463.766-500.861c18.545-81.164,27.828-171.593,27.828-268.986
	c2.327-106.672-6.955-201.734-27.828-287.542L1381.095,518.266z M1292.987,1074.781c-46.378,187.83-155.359,357.108-382.609,419.706
	c-60.297,16.232-129.858,25.516-211.014,25.516h-6.955c-78.836,0-150.731-11.597-211.015-27.828
	c-224.922-64.92-333.919-231.891-380.296-419.706c-23.189-90.433-30.141-187.83-30.141-278.266
	c0-85.797,9.269-176.236,30.141-262.023c44.052-183.188,143.767-347.83,352.455-417.391C520.794,91.6,601.956,77.68,694.717,77.68
	h6.955c90.434,0,166.953,13.92,231.891,34.786c213.328,69.567,315.359,234.203,359.423,417.392
	c20.861,90.433,30.141,185.516,27.827,273.616c2.327,88.109-6.954,180.861-27.827,271.298L1292.987,1074.781z"/>
</svg>
